<svg width="31" height="60" viewBox="0 0 31 60" fill="none" xmlns="http://www.w3.org/2000/svg">
<path id="Vector" d="M2.5 60C1.99545 60 1.536 59.8001 1.12164 59.4003C0.707214 59.0004 0.5 58.557 0.5 58.0702V23.8596C0.5 23.466 0.636363 23.141 0.90909 22.8846C1.18182 22.6282 1.5303 22.3977 1.95455 22.193L5.31818 20.8772C7.37879 20.123 8.93939 19.192 10 18.084C11.0606 16.9761 11.5909 15.1586 11.5909 12.6316V2.25561C11.5909 1.62532 11.8004 1.09181 12.2193 0.655089C12.6382 0.218364 13.2167 0 13.9545 0H16.9545C17.6152 0 18.1742 0.218364 18.6318 0.655089C19.0894 1.09181 19.3182 1.62532 19.3182 2.25561V12.6316C19.3182 15.1586 19.8864 16.9746 21.0227 18.0795C22.1591 19.1844 23.7465 20.117 25.785 20.8772L29.2273 22.193C29.6515 22.4023 29.9697 22.6344 30.1818 22.8894C30.3939 23.1444 30.5 23.4678 30.5 23.8596V58.0702C30.5 58.557 30.2928 59.0004 29.8784 59.4003C29.464 59.8001 29.0045 60 28.5 60H2.5ZM13.5909 5.87719H17.3182V1.92982H13.5909V5.87719ZM2.5 32.9825H28.5V23.8274L24.9545 22.6316C22.5909 21.8129 20.7273 20.6815 19.3636 19.2374C18 17.7933 17.3182 15.5329 17.3182 12.4561V7.80702H13.5909V12.4561C13.5909 15.5394 12.9111 17.7649 11.5515 19.1326C10.1919 20.5004 8.3813 21.6082 6.11973 22.4561L2.5 23.8874V32.9825ZM2.5 58.0702H28.5V47.4561H2.5V58.0702ZM2.5 45.5263H28.5V34.9123H2.5V45.5263Z" fill="#1E2754"/>
</svg>
